<svg width="138" height="32" viewBox="0 0 138 32" xmlns="http://www.w3.org/2000/svg" xmlns:xlink="http://www.w3.org/1999/xlink">
  <defs>
    <circle id="a" cx="15" cy="15" r="15"/>
  </defs>
  <g fill="none" fill-rule="evenodd">
    <path d="M109.3 21.942c.044-.36-.182-.7-.543-.7-.52 0-1.063.813-2.306.813-1.311 0-1.967-.835-1.83-1.827l1.152-8.206h4a.765.765 0 0 0 .77-.677c.045-.338-.114-.676-.566-.676h-4l.384-2.863c.067-.451-.226-.677-.565-.677a.791.791 0 0 0-.792.677l-.384 2.863h-2.057a.788.788 0 0 0-.791.676c-.045.339.136.677.588.677h2.057l-1.153 8.206c-.249 1.804.994 3.18 2.984 3.18.859 0 1.763-.316 2.509-.812.248-.18.497-.361.542-.654zm8.813-2.413l.746-5.208c.317-2.254-.95-3.877-3.503-3.877-1.244 0-2.532.473-3.481 1.397-.181.18-.362.406-.407.654a.561.561 0 0 0 .565.654c.474 0 .633-.36 1.153-.721s1.107-.632 1.966-.632c1.831 0 2.554 1.015 2.351 2.525l-.158 1.06-2.984.609c-2.102.428-4.16 1.533-4.476 3.787-.339 2.368 1.447 3.63 3.594 3.63 2.193 0 4.318-1.555 4.634-3.878zm-1.356 0c-.203 1.466-1.514 2.526-3.097 2.526-1.65 0-2.622-.902-2.418-2.3.158-1.15 1.31-2.052 2.916-2.39l3.006-.631-.407 2.795zm10.374.316c.633-4.419-5.877-3.382-5.47-6.177.158-1.105 1.198-1.872 2.554-1.872.859 0 1.605.384 2.057.992.068.113.09.158.09.158.136.226.317.316.52.316.34 0 .746-.293.791-.654a.722.722 0 0 0-.045-.383c-.542-1.105-1.944-1.781-3.21-1.781-1.785 0-3.82 1.082-4.114 3.224-.587 4.148 5.923 2.976 5.47 6.177-.158 1.195-1.378 2.21-3.141 2.21-.814 0-1.628-.271-2.102-.857-.068-.068-.09-.113-.09-.113a.558.558 0 0 0-.52-.293.839.839 0 0 0-.792.676c-.023.113.023.248.09.384.543 1.037 2.057 1.555 3.21 1.555 2.238 0 4.408-1.375 4.702-3.562zm9.673 2.66c.023-.135-.023-.27-.113-.405l-3.594-5.885 4.453-4.441c.113-.135.203-.293.226-.429.068-.36-.226-.698-.61-.698-.159 0-.362.09-.543.27l-6.374 6.38 1.56-11.024c.067-.451-.25-.677-.588-.677a.77.77 0 0 0-.769.677l-2.283 16.232c-.068.451.249.677.588.677.339 0 .7-.226.769-.677l.429-3.133 2.08-2.097 3.458 5.636a.57.57 0 0 0 .497.27c.362 0 .746-.292.814-.676z" fill="#0AF"/>
    <path d="M49.681 22.505l1.13-8.116c.317-2.187-1.198-3.945-3.39-3.945-1.357 0-2.668.699-3.527 1.736-.542-1.037-1.672-1.736-3.029-1.736-2.192 0-4.204 1.758-4.52 3.945l-1.13 8.116c-.068.451.248.677.587.677.34 0 .7-.226.769-.677l1.13-8.116c.203-1.443 1.514-2.593 2.961-2.593 1.447 0 2.441 1.15 2.238 2.593l-1.13 8.116c-.068.474.226.7.565.7.339 0 .723-.226.79-.7l1.131-8.116c.203-1.443 1.515-2.593 2.961-2.593 1.447 0 2.441 1.15 2.238 2.593l-1.13 8.116c-.068.451.248.677.587.677.34 0 .701-.226.769-.677zm11.414-6.087l.226-1.578c.339-2.435-1.357-4.396-3.798-4.396s-4.679 1.961-5.018 4.396l-.588 4.17c-.361 2.48 1.628 4.397 4.001 4.397 1.38 0 2.894-.518 3.91-1.646a.93.93 0 0 0 .204-.428c.046-.36-.248-.654-.61-.654-.18 0-.407.09-.61.293-.769.835-1.831 1.083-2.69 1.083-1.74 0-3.097-1.42-2.848-3.044l.248-1.916h6.782c.361 0 .723-.316.79-.677zm-1.266-.676h-6.103l.135-.902c.226-1.69 1.763-3.044 3.459-3.044 1.695 0 2.87 1.353 2.644 3.044l-.135.902zm3.389 6.763l1.56-11.16c.068-.45-.226-.676-.565-.676a.791.791 0 0 0-.792.676l-1.56 11.16c-.067.451.25.677.588.677.34 0 .701-.226.769-.677zm.633-15.736c-.068.496.271.902.768.902.498 0 .972-.406 1.04-.902a.779.779 0 0 0-.79-.902c-.498 0-.95.406-1.018.902zm8.905 13.076c.632-4.419-5.878-3.382-5.47-6.177.158-1.105 1.197-1.872 2.554-1.872.859 0 1.604.384 2.057.992.067.113.09.158.09.158.136.226.316.316.52.316.339 0 .746-.293.791-.654a.722.722 0 0 0-.045-.383c-.543-1.105-1.944-1.781-3.21-1.781-1.786 0-3.82 1.082-4.114 3.224-.588 4.148 5.922 2.976 5.47 6.177-.158 1.195-1.379 2.21-3.142 2.21-.813 0-1.627-.271-2.102-.857a.5.5 0 0 1-.09-.113.558.558 0 0 0-.52-.293.839.839 0 0 0-.791.676c-.023.113.022.248.09.384.543 1.037 2.057 1.555 3.21 1.555 2.238 0 4.408-1.375 4.702-3.562zm8.768 2.097c.046-.36-.18-.7-.542-.7-.52 0-1.062.813-2.306.813-1.31 0-1.966-.835-1.83-1.827l1.152-8.206H82a.765.765 0 0 0 .769-.677c.045-.338-.113-.676-.565-.676h-4.001l.384-2.863c.068-.451-.226-.677-.565-.677a.791.791 0 0 0-.791.677l-.385 2.863h-2.057a.788.788 0 0 0-.79.676c-.046.339.135.677.587.677h2.057l-1.153 8.206c-.248 1.804.995 3.18 2.984 3.18.859 0 1.763-.316 2.509-.812.249-.18.497-.361.542-.654zm10.216-5.524l.226-1.578c.34-2.435-1.356-4.396-3.797-4.396-2.442 0-4.68 1.961-5.018 4.396l-.588 4.17c-.362 2.48 1.627 4.397 4 4.397 1.38 0 2.894-.518 3.911-1.646a.93.93 0 0 0 .204-.428c.045-.36-.249-.654-.61-.654-.181 0-.407.09-.61.293-.77.835-1.832 1.083-2.69 1.083-1.741 0-3.098-1.42-2.849-3.044l.249-1.916h6.781c.362 0 .723-.316.791-.677zm-1.266-.676h-6.103l.136-.902c.226-1.69 1.763-3.044 3.458-3.044 1.696 0 2.87 1.353 2.645 3.044l-.136.902zm10.487-3.72c.023-.158-.022-.316-.158-.474-.588-.699-1.718-1.104-2.645-1.104-2.622 0-4.25 2.051-4.588 4.554l-1.063 7.507c-.068.451.249.677.588.677.339 0 .7-.226.768-.677l1.063-7.507c.271-2.03 1.401-3.202 3.029-3.202.633 0 1.243.226 1.673.61l.09.09a.64.64 0 0 0 .452.202c.384 0 .746-.315.791-.676z" fill="#3D474D"/>
    <g>
      <g transform="translate(1 1)">
        <use fill="#FFF" xlink:href="#a"/>
        <circle stroke-opacity=".1" stroke="#000" cx="15" cy="15" r="15.5"/>
      </g>
      <path fill="#00D5FF" d="M9.205 14.68l3.645 3.523 10.024-9.688 2.734 2.642-12.758 12.33-6.38-6.165 2.735-2.642"/>
      <path fill="#00A9FF" d="M10.116 20.845l-.911-.881.91-.88.912.88-.911.88"/>
      <path fill="#00AFFF" d="M9.205 19.964l-.912-.88.912-.881.91.88-.91.881"/>
      <path fill="#00B4FF" d="M8.293 19.083l-.911-.88.911-.881.912.88-.912.881"/>
      <path fill="#00BAFF" d="M7.382 18.203l-.911-.881.911-.88.911.88-.911.88"/>
      <path fill="#00A5F0" d="M11.027 19.964l-.911-.88.911-.881.912.88-.912.881"/>
      <path fill="#26C2FF" d="M10.116 19.083l-.911-.88.91-.881.912.88-.911.881"/>
      <path fill="#00BCFB" d="M9.205 18.203l-.912-.881.912-.88.91.88-.91.88"/>
      <path fill="#00C3FA" d="M8.293 17.322l-.911-.88.911-.882.912.881-.912.88"/>
      <path fill="#00B2FB" d="M11.939 19.083l-.912-.88.912-.881.91.88-.91.881"/>
      <path fill="#00BDF7" d="M11.027 18.203l-.911-.881.911-.88.912.88-.912.88"/>
      <path fill="#00D3FF" d="M10.116 17.322l-.911-.88.91-.882.912.881-.911.88"/>
      <path fill="#00D3EE" d="M9.205 16.441l-.912-.88.912-.881.91.88-.91.881"/>
      <path fill="#00A9FF" d="M12.85 23.487l-.911-.88.91-.882.912.881-.911.88"/>
      <path fill="#02A3ED" d="M13.761 22.606l-.911-.88.911-.881.911.88-.91.881"/>
      <path fill="#03B2FB" d="M14.672 21.725l-.91-.88.91-.881.912.88-.912.881"/>
      <path fill="#19C0FF" d="M15.584 20.845l-.912-.881.912-.88.911.88-.911.88"/>
      <path fill="#07BCF7" d="M16.495 19.964l-.911-.88.911-.881.911.88-.91.881"/>
      <path fill="#08BAED" d="M17.406 19.083l-.91-.88.91-.881.912.88-.912.881"/>
      <path fill="#0AC5F3" d="M18.318 18.203l-.912-.881.912-.88.911.88-.911.88"/>
      <path fill="#0CCAF2" d="M19.229 17.322l-.911-.88.911-.882.911.881-.911.88"/>
      <path fill="#0FDAFC" d="M20.14 16.441l-.911-.88.911-.881.912.88-.912.881"/>
      <path fill="#0FD3EE" d="M21.052 15.56l-.912-.88.912-.881.91.88-.91.881"/>
      <path fill="#11E2F7" d="M21.963 14.68l-.911-.881.91-.88.912.88-.911.88"/>
      <path fill="#13DDEA" d="M22.874 13.799l-.911-.88.911-.881.912.88-.912.881"/>
      <path fill="#16F7FF" d="M23.786 12.918l-.912-.88.912-.881.91.88-.91.881"/>
      <path fill="#16E6E6" d="M24.697 12.038l-.911-.881.91-.88.912.88-.911.88"/>
      <path fill="#0FAFFF" d="M11.939 22.606l-.912-.88.912-.881.91.88-.91.881"/>
      <path fill="#0EB3FD" d="M12.85 21.725l-.911-.88.91-.881.912.88-.911.881"/>
      <path fill="#0DBAFF" d="M13.761 20.845l-.911-.881.911-.88.911.88-.91.88"/>
      <path fill="#0CBCF9" d="M14.672 19.964l-.91-.88.91-.881.912.88-.912.881"/>
      <path fill="#0AC6FF" d="M15.584 19.083l-.912-.88.912-.881.911.88-.911.881"/>
      <path fill="#09C4F5" d="M16.495 18.203l-.911-.881.911-.88.911.88-.91.88"/>
      <path fill="#08C3ED" d="M17.406 17.322l-.91-.88.91-.882.912.881-.912.88"/>
      <path fill="#07D8FF" d="M18.318 16.441l-.912-.88.912-.881.911.88-.911.881"/>
      <path fill="#06D1F0" d="M19.229 15.56l-.911-.88.911-.881.911.88-.911.881"/>
      <path fill="#05D5EE" d="M20.14 14.68l-.911-.881.911-.88.912.88-.912.88"/>
      <path fill="#03D9EC" d="M21.052 13.799l-.912-.88.912-.881.91.88-.91.881"/>
      <path fill="#02E3F0" d="M21.963 12.918l-.911-.88.91-.881.912.88-.911.881"/>
      <path fill="#01E2E8" d="M22.874 12.038l-.911-.881.911-.88.912.88-.912.88"/>
      <path fill="#00F2F2" d="M23.786 11.157l-.912-.88.912-.882.91.881-.91.88"/>
      <path fill="#19B2FF" d="M11.027 21.725l-.911-.88.911-.881.912.88-.912.881"/>
      <path fill="#1BB8FF" d="M11.939 20.845l-.912-.881.912-.88.91.88-.91.88"/>
      <path fill="#33C4FF" d="M12.85 19.964l-.911-.88.91-.881.912.88-.911.881"/>
      <path fill="#1CB4EB" d="M13.761 19.083l-.911-.88.911-.881.911.88-.91.881"/>
      <path fill="#1FC2F4" d="M14.672 18.203l-.91-.881.91-.88.912.88-.912.88"/>
      <path fill="#23D1FF" d="M15.584 17.322l-.912-.88.912-.882.911.881-.911.88"/>
      <path fill="#23CAEF" d="M16.495 16.441l-.911-.88.911-.881.911.88-.91.881"/>
      <path fill="#22C4E0" d="M17.406 15.56l-.91-.88.91-.881.912.88-.912.881"/>
      <path fill="#26D2E9" d="M18.318 14.68l-.912-.881.912-.88.911.88-.911.88"/>
      <path fill="#2CECFF" d="M19.229 13.799l-.911-.88.911-.881.911.88-.911.881"/>
      <path fill="#29DAE4" d="M20.14 12.918l-.911-.88.911-.881.912.88-.912.881"/>
      <path fill="#2BDEE1" d="M21.052 12.038l-.912-.881.912-.88.91.88-.91.88"/>
      <path fill="#2CE2DF" d="M21.963 11.157l-.911-.88.91-.882.912.881-.911.88"/>
      <path fill="#2FEBE0" d="M22.874 10.276l-.911-.88.911-.881.912.88-.912.881"/>
    </g>
  </g>
</svg>
