<svg width="142" height="32" viewBox="0 0 142 32" xmlns="http://www.w3.org/2000/svg" xmlns:xlink="http://www.w3.org/1999/xlink">
  <defs>
    <circle id="a" cx="15" cy="15" r="15"/>
  </defs>
  <g fill="none" fill-rule="evenodd">
    <path d="M49.643 22.505l1.127-8.116c.316-2.187-1.195-3.945-3.382-3.945-1.352 0-2.66.699-3.517 1.736-.54-1.037-1.668-1.736-3.02-1.736-2.188 0-4.194 1.758-4.51 3.945l-1.127 8.116c-.068.451.248.677.586.677a.768.768 0 0 0 .767-.677l1.127-8.116c.203-1.443 1.51-2.593 2.953-2.593 1.443 0 2.435 1.15 2.232 2.593l-1.127 8.116c-.068.474.225.7.564.7a.79.79 0 0 0 .789-.7l1.127-8.116c.203-1.443 1.51-2.593 2.953-2.593 1.443 0 2.435 1.15 2.232 2.593l-1.127 8.116c-.067.451.248.677.586.677a.768.768 0 0 0 .767-.677zm3.2 0l1.556-11.16c.067-.45-.226-.676-.564-.676a.79.79 0 0 0-.79.676l-1.555 11.16c-.067.451.248.677.586.677a.768.768 0 0 0 .767-.677zm.631-15.736c-.067.496.27.902.767.902.496 0 .97-.406 1.037-.902a.778.778 0 0 0-.79-.902c-.495 0-.946.406-1.014.902zm10.009 15.736l1.082-7.665c.338-2.435-1.353-4.396-3.788-4.396-2.434 0-4.666 1.961-5.005 4.396l-1.082 7.665c-.067.451.248.677.586.677a.768.768 0 0 0 .767-.677l1.082-7.665c.226-1.69 1.759-3.044 3.45-3.044 1.69 0 2.863 1.353 2.637 3.044l-1.082 7.665c-.067.451.248.677.586.677a.768.768 0 0 0 .767-.677zm10.662-10.641c-.653-.834-1.645-1.42-2.84-1.42-2.435 0-4.667 1.961-5.005 4.396l-.587 4.17c-.36 2.436 1.33 4.397 3.766 4.397 2.434 0 4.666-1.961 5.027-4.396l1.781-12.738c.068-.451-.248-.677-.586-.677a.768.768 0 0 0-.766.677l-.79 5.591zm-.992 7.147c-.248 1.69-1.78 3.044-3.472 3.044-1.69 0-2.863-1.353-2.615-3.044l.586-4.171c.226-1.69 1.759-3.044 3.45-3.044 1.69 0 2.863 1.353 2.638 3.044l-.587 4.17z" fill="#0AF"/>
    <path d="M90.37 22.505l1.127-8.116c.316-2.187-1.194-3.945-3.381-3.945-1.353 0-2.66.699-3.517 1.736-.542-1.037-1.669-1.736-3.022-1.736-2.186 0-4.193 1.758-4.509 3.945l-1.127 8.116c-.068.451.248.677.586.677a.768.768 0 0 0 .767-.677l1.127-8.116c.203-1.443 1.51-2.593 2.954-2.593 1.442 0 2.434 1.15 2.232 2.593l-1.128 8.116c-.067.474.226.7.564.7a.79.79 0 0 0 .789-.7l1.127-8.116c.203-1.443 1.51-2.593 2.954-2.593 1.443 0 2.435 1.15 2.232 2.593l-1.128 8.116c-.067.451.248.677.587.677a.768.768 0 0 0 .766-.677zm11.384-6.087l.226-1.578c.338-2.435-1.353-4.396-3.788-4.396-2.435 0-4.667 1.961-5.005 4.396l-.586 4.17c-.361 2.48 1.623 4.397 3.99 4.397 1.376 0 2.886-.518 3.9-1.646a.93.93 0 0 0 .204-.428c.045-.36-.248-.654-.61-.654-.18 0-.405.09-.608.293-.766.835-1.826 1.083-2.683 1.083-1.736 0-3.089-1.42-2.84-3.044l.247-1.916h6.764c.36 0 .722-.316.79-.677zm-1.262-.676h-6.088l.136-.902c.225-1.69 1.758-3.044 3.45-3.044 1.69 0 2.862 1.353 2.637 3.044l-.135.902zm3.38 6.763l1.556-11.16c.067-.45-.226-.676-.564-.676a.79.79 0 0 0-.79.676l-1.555 11.16c-.067.451.248.677.586.677a.768.768 0 0 0 .767-.677zm.631-15.736c-.067.496.27.902.767.902.496 0 .97-.406 1.037-.902a.778.778 0 0 0-.79-.902c-.495 0-.946.406-1.014.902zm8.882 13.076c.631-4.419-5.862-3.382-5.456-6.177.158-1.105 1.195-1.872 2.547-1.872.857 0 1.601.384 2.052.992.068.113.09.158.09.158.135.226.316.316.519.316.338 0 .744-.293.789-.654a.724.724 0 0 0-.045-.383c-.541-1.105-1.94-1.781-3.202-1.781-1.78 0-3.81 1.082-4.103 3.224-.586 4.148 5.907 2.976 5.456 6.177-.158 1.195-1.375 2.21-3.134 2.21-.811 0-1.623-.271-2.097-.857-.067-.068-.09-.113-.09-.113a.556.556 0 0 0-.518-.293c-.361 0-.722.293-.79.676-.022.113.023.248.09.384.542 1.037 2.052 1.555 3.202 1.555 2.232 0 4.397-1.375 4.69-3.562zm8.746 2.097c.045-.36-.18-.7-.541-.7-.519 0-1.06.813-2.3.813-1.307 0-1.961-.835-1.826-1.827l1.15-8.206h3.99c.451 0 .722-.338.767-.677.045-.338-.113-.676-.564-.676h-3.99l.383-2.863c.068-.451-.225-.677-.564-.677a.79.79 0 0 0-.789.677l-.383 2.863h-2.052a.787.787 0 0 0-.789.676c-.045.339.136.677.586.677h2.052l-1.15 8.206c-.248 1.804.992 3.18 2.976 3.18.857 0 1.759-.316 2.503-.812.248-.18.496-.361.54-.654zm10.189-5.524l.225-1.578c.339-2.435-1.352-4.396-3.787-4.396-2.435 0-4.667 1.961-5.005 4.396l-.586 4.17c-.361 2.48 1.623 4.397 3.99 4.397 1.375 0 2.886-.518 3.9-1.646a.93.93 0 0 0 .203-.428c.045-.36-.248-.654-.608-.654-.18 0-.406.09-.61.293-.766.835-1.825 1.083-2.682 1.083-1.736 0-3.089-1.42-2.84-3.044l.247-1.916h6.764c.36 0 .721-.316.789-.677zm-1.263-.676h-6.087l.135-.902c.226-1.69 1.759-3.044 3.45-3.044 1.69 0 2.863 1.353 2.638 3.044l-.136.902zm10.46-3.72c.023-.158-.022-.316-.158-.474-.586-.699-1.713-1.104-2.638-1.104-2.615 0-4.238 2.051-4.576 4.554l-1.06 7.507c-.068.451.248.677.586.677a.768.768 0 0 0 .767-.677l1.06-7.507c.27-2.03 1.397-3.202 3.02-3.202.632 0 1.24.226 1.669.61l.09.09a.638.638 0 0 0 .451.202c.383 0 .744-.315.79-.676z" fill="#3D474D"/>
    <g>
      <g transform="translate(1 1)">
        <use fill="#FFF" xlink:href="#a"/>
        <circle stroke-opacity=".1" stroke="#000" cx="15" cy="15" r="15.5"/>
      </g>
      <path d="M9.419 13.589c-.592.882-1.032 2.04-1 3.085.022.035.116.13.138.165.399-.658.908-1.54 1.43-2.204a19.64 19.64 0 0 1-.568-1.046M24.681 18.025a9.394 9.394 0 0 1-1.593 1.632c.868 2.132.942 3.854.017 4.605-1.148.93-3.543.138-6.17-1.817a21.38 21.38 0 0 1-.651-.505h-.007l-.064-.057a27.167 27.167 0 0 1-3.36-3.28 27.377 27.377 0 0 1-2.398-3.2 12.01 12.01 0 0 0-1.134 2.269 20.82 20.82 0 0 0 2.296 2.618c.482.467.977.903 1.48 1.308.512.412 1.032.791 1.554 1.135 3.793 2.499 7.69 3.141 9.59 1.302 1.33-1.287 1.403-3.524.44-6.01" fill="#F3B6CE"/>
      <path d="M14.148 10.528a24.116 24.116 0 0 0-2.04 1.766 23.6 23.6 0 0 0-2.12 2.341 19.79 19.79 0 0 0-1.44 2.08c.047.637.225 1.24.512 1.796.07-.274.157-.554.261-.84.27-.736.65-1.502 1.134-2.269a15.914 15.914 0 0 1 2.009-2.541 15.82 15.82 0 0 1 3.179-2.558 9.562 9.562 0 0 0-1.495.225M24.24 8.072c-1.673-1.62-5.348-.825-9.046 1.696.192.146.386.298.58.456 2.562-1.503 5.08-1.83 6.433-.605 1.5 1.357 1.135 4.22-.675 7.086.164.258.32.514.468.767.53-.672 1.041-1.226 1.443-1.892 1.864-3.088 2.258-6.095.798-7.508" fill="#F2488F"/>
      <path d="M15.774 10.224a21.744 21.744 0 0 0-.679-.53l-.102.02c-2.4.486-4.518 1.482-6.09 2.745a9.493 9.493 0 0 0-1.6 1.615c-.964 1.26-1.43 2.65-1.222 4.005.121.792.462 1.504.98 2.12.547.651 1.292 1.195 2.185 1.61 1.475.688 3.352 1.027 5.405.924a20.238 20.238 0 0 1-1.554-1.135c-1.832-.542-3.298-1.654-4.037-3.087a4.647 4.647 0 0 1-.522-1.995c-.033-1.044.29-2.045.88-2.927.974-1.451 2.676-2.582 4.73-3.061.48-.112.98-.189 1.495-.225l.067-.005.145-.008a21.298 21.298 0 0 0-.08-.066M25.859 14.078c-.458-2.986-4.04-4.845-8.456-4.66.588.392 1.174.827 1.748 1.305 2.426.805 4.154 2.63 4.292 4.857l.003.061c.052 1.052-.257 2.061-.84 2.953-1.199 1.832-3.555 3.167-6.322 3.346.218.176.435.344.65.505l.013-.003c2.427-.49 4.563-1.503 6.14-2.785a9.394 9.394 0 0 0 1.594-1.632c.934-1.244 1.383-2.612 1.178-3.947" fill="#F27AAC"/>
      <path d="M23.446 15.641a5.11 5.11 0 0 0-.003-.06 20.067 20.067 0 0 0-3.073-3.763 21.76 21.76 0 0 0-1.219-1.095 20.425 20.425 0 0 0-1.748-1.304C13.59 6.883 9.657 6.222 7.746 8.072c-1.329 1.286-1.403 3.52-.443 6.002a9.493 9.493 0 0 1 1.6-1.615c-.871-2.136-.947-3.862-.02-4.614 1.153-.936 3.568-.129 6.212 1.85.252.187.505.386.76.595a27.263 27.263 0 0 1 3.28 3.215c1.492 1.723 2.674 3.487 3.47 5.089.584-.892.893-1.901.841-2.953" fill="#F3B6CE"/>
      <path d="M21.532 16.705a15.915 15.915 0 0 1-2.009 2.542 15.737 15.737 0 0 1-3.426 2.704c-2.482 1.422-4.906 1.733-6.253.593a2.55 2.55 0 0 1-.598-.734c-.893-.416-1.638-.959-2.185-1.61-.204.869-.243 1.666-.102 2.347.123.583.382 1.097.787 1.49 1.796 1.737 5.893.697 9.85-2.272a23.992 23.992 0 0 0 2.282-1.951A23.61 23.61 0 0 0 22 17.472c-.148-.253-.304-.51-.468-.767" fill="#F2488F"/>
    </g>
  </g>
</svg>
