<svg width="263" height="160" viewBox="0 0 263 160" xmlns="http://www.w3.org/2000/svg" xmlns:xlink="http://www.w3.org/1999/xlink">
  <defs>
    <circle id="a" cx="78" cy="78" r="43"/>
    <mask id="b" x="-4" y="-4" width="94" height="94">
      <path fill="#fff" d="M31 31h94v94H31z"/>
      <use xlink:href="#a"/>
    </mask>
    <rect id="d" x="7.572" y="20.854" width="34.073" height="6.319" rx="3.16"/>
    <filter x="-50%" y="-50%" width="200%" height="200%" filterUnits="objectBoundingBox" id="e">
      <feGaussianBlur stdDeviation="2" in="SourceAlpha" result="shadowBlurInner1"/>
      <feOffset in="shadowBlurInner1" result="shadowOffsetInner1"/>
      <feComposite in="shadowOffsetInner1" in2="SourceAlpha" operator="arithmetic" k2="-1" k3="1" result="shadowInnerInner1"/>
      <feColorMatrix values="0 0 0 0 0.4 0 0 0 0 0 0 0 0 0 0 0 0 0 0.3 0" in="shadowInnerInner1"/>
    </filter>
    <path d="M33.993 12.117c-2.047-.41-3.706-2.433-3.706-4.53V0H18.93v7.587c0 2.092-1.664 4.12-3.707 4.53L0 15.167v8.847h49.216v-8.847l-15.223-3.05z" id="f"/>
    <filter x="-50%" y="-50%" width="200%" height="200%" filterUnits="objectBoundingBox" id="g">
      <feGaussianBlur stdDeviation="2" in="SourceAlpha" result="shadowBlurInner1"/>
      <feOffset in="shadowBlurInner1" result="shadowOffsetInner1"/>
      <feComposite in="shadowOffsetInner1" in2="SourceAlpha" operator="arithmetic" k2="-1" k3="1" result="shadowInnerInner1"/>
      <feColorMatrix values="0 0 0 0 0.4 0 0 0 0 0 0 0 0 0 0 0 0 0 0.3 0" in="shadowInnerInner1"/>
    </filter>
    <path id="i" d="M.63 14.535l15.775-3.16H32.81l15.775 3.16v20.11H.63z"/>
    <filter x="-50%" y="-50%" width="200%" height="200%" filterUnits="objectBoundingBox" id="j">
      <feGaussianBlur stdDeviation="2" in="SourceAlpha" result="shadowBlurInner1"/>
      <feOffset in="shadowBlurInner1" result="shadowOffsetInner1"/>
      <feComposite in="shadowOffsetInner1" in2="SourceAlpha" operator="arithmetic" k2="-1" k3="1" result="shadowInnerInner1"/>
      <feColorMatrix values="0 0 0 0 0.501960784 0 0 0 0 0 0 0 0 0 0 0 0 0 0.3 0" in="shadowInnerInner1"/>
    </filter>
    <rect id="k" x="16.405" y="8.847" width="16.405" height="3.792" rx="1.26"/>
    <filter x="-50%" y="-50%" width="200%" height="200%" filterUnits="objectBoundingBox" id="l">
      <feGaussianBlur stdDeviation="2" in="SourceAlpha" result="shadowBlurInner1"/>
      <feOffset in="shadowBlurInner1" result="shadowOffsetInner1"/>
      <feComposite in="shadowOffsetInner1" in2="SourceAlpha" operator="arithmetic" k2="-1" k3="1" result="shadowInnerInner1"/>
      <feColorMatrix values="0 0 0 0 0.501960784 0 0 0 0 0 0 0 0 0 0 0 0 0 0.3 0" in="shadowInnerInner1"/>
    </filter>
    <path d="M8.834 17.02c0-8.702 7.06-15.756 15.75-15.756h.047c8.7 0 15.752 7.05 15.752 15.756v5.73l-1.953 8.998c-.665 3.058-3.473 6.674-6.28 8.08l-4.16 2.083c-1.868.936-4.892.938-6.764 0l-4.16-2.082c-2.804-1.405-5.616-5.025-6.28-8.08L8.835 22.75v-5.73z" id="m"/>
    <filter x="-50%" y="-50%" width="200%" height="200%" filterUnits="objectBoundingBox" id="n">
      <feGaussianBlur stdDeviation="2" in="SourceAlpha" result="shadowBlurInner1"/>
      <feOffset in="shadowBlurInner1" result="shadowOffsetInner1"/>
      <feComposite in="shadowOffsetInner1" in2="SourceAlpha" operator="arithmetic" k2="-1" k3="1" result="shadowInnerInner1"/>
      <feColorMatrix values="0 0 0 0 0.4 0 0 0 0 0 0 0 0 0 0 0 0 0 0.3 0" in="shadowInnerInner1"/>
    </filter>
    <path d="M38.425 6.16C34.852 2.243 29.63 0 24.608 0 15.764 0 7.256 5.51 5.994 14.807c-.28 2.06-.63 5.73.316 9.207 2.84 1.377 7.025-4.143 8.202-7.485 3.47 4.13 11.673 1.568 11.673 0 1.578 3.098 13.566 8 16.09 5.588.63-1.58.63-4.364.63-4.364 0-3.293-.877-6.227-2.348-8.716.594-.244 1.186-.693 1.718-1.455-1.7-.44-2.917-.93-3.85-1.423z" id="o"/>
    <filter x="-50%" y="-50%" width="200%" height="200%" filterUnits="objectBoundingBox" id="p">
      <feGaussianBlur stdDeviation="2" in="SourceAlpha" result="shadowBlurInner1"/>
      <feOffset in="shadowBlurInner1" result="shadowOffsetInner1"/>
      <feComposite in="shadowOffsetInner1" in2="SourceAlpha" operator="arithmetic" k2="-1" k3="1" result="shadowInnerInner1"/>
      <feColorMatrix values="0 0 0 0 0.501960784 0 0 0 0 0 0 0 0 0 0 0 0 0 0.3 0" in="shadowInnerInner1"/>
    </filter>
    <ellipse id="q" cx="20.822" cy="27.806" rx="20.191" ry="20.222"/>
    <filter x="-50%" y="-50%" width="200%" height="200%" filterUnits="objectBoundingBox" id="r">
      <feGaussianBlur stdDeviation="2" in="SourceAlpha" result="shadowBlurInner1"/>
      <feOffset in="shadowBlurInner1" result="shadowOffsetInner1"/>
      <feComposite in="shadowOffsetInner1" in2="SourceAlpha" operator="arithmetic" k2="-1" k3="1" result="shadowInnerInner1"/>
      <feColorMatrix values="0 0 0 0 0.501960784 0 0 0 0 0 0 0 0 0 0 0 0 0 0.3 0" in="shadowInnerInner1"/>
    </filter>
    <path d="M5.048 24.014c0-1.745 1.417-3.16 3.17-3.16h25.21c1.75 0 3.168 1.418 3.168 3.16 0 1.745-1.416 3.16-3.17 3.16H8.217c-1.75 0-3.168-1.42-3.168-3.16z" id="s"/>
    <filter x="-50%" y="-50%" width="200%" height="200%" filterUnits="objectBoundingBox" id="t">
      <feGaussianBlur stdDeviation="2" in="SourceAlpha" result="shadowBlurInner1"/>
      <feOffset in="shadowBlurInner1" result="shadowOffsetInner1"/>
      <feComposite in="shadowOffsetInner1" in2="SourceAlpha" operator="arithmetic" k2="-1" k3="1" result="shadowInnerInner1"/>
      <feColorMatrix values="0 0 0 0 0.6 0 0 0 0 0 0 0 0 0 0 0 0 0 0.4 0" in="shadowInnerInner1"/>
    </filter>
    <path d="M27.642 14.01c-1.327-.408-2.403-1.87-2.403-3.267V0h-8.835v10.743c0 1.396-1.076 2.86-2.403 3.268l-7.116 2.194C3.083 17.376 0 21.556 0 25.534v13.904h41.644V25.532c0-3.98-3.085-8.158-6.886-9.33l-7.116-2.192z" id="u"/>
    <filter x="-50%" y="-50%" width="200%" height="200%" filterUnits="objectBoundingBox" id="v">
      <feGaussianBlur stdDeviation="2" in="SourceAlpha" result="shadowBlurInner1"/>
      <feOffset in="shadowBlurInner1" result="shadowOffsetInner1"/>
      <feComposite in="shadowOffsetInner1" in2="SourceAlpha" operator="arithmetic" k2="-1" k3="1" result="shadowInnerInner1"/>
      <feColorMatrix values="0 0 0 0 0.6 0 0 0 0 0 0 0 0 0 0 0 0 0 0.4 0" in="shadowInnerInner1"/>
    </filter>
    <path d="M5.61 15.836C5.3 7.44 11.855.632 20.268.632h1.11c8.404 0 14.966 6.817 14.656 15.204l-.07 1.858L34.32 28.58c-.834 5.505-5.736 11.528-10.97 13.46l-1.346.496c-.653.24-1.712.24-2.364 0l-1.346-.497C13.07 40.11 8.16 34.087 7.324 28.58L5.68 17.694l-.07-1.858z" id="x"/>
    <filter x="-50%" y="-50%" width="200%" height="200%" filterUnits="objectBoundingBox" id="y">
      <feGaussianBlur stdDeviation="2" in="SourceAlpha" result="shadowBlurInner1"/>
      <feOffset in="shadowBlurInner1" result="shadowOffsetInner1"/>
      <feComposite in="shadowOffsetInner1" in2="SourceAlpha" operator="arithmetic" k2="-1" k3="1" result="shadowInnerInner1"/>
      <feColorMatrix values="0 0 0 0 0.6 0 0 0 0 0 0 0 0 0 0 0 0 0 0.4 0" in="shadowInnerInner1"/>
    </filter>
    <path d="M36.596 22.07c-.31.032-.627.048-.946.048-4.337 0-8.054-3-9.62-7.262-4.165 4.047-9.908 6.55-16.25 6.55-1.622 0-3.205-.165-4.732-.476v-5.182C5.048 7.05 12.108 0 20.798 0h.047c8.7 0 15.75 7.05 15.75 15.748v6.322z" id="z"/>
    <filter x="-50%" y="-50%" width="200%" height="200%" filterUnits="objectBoundingBox" id="A">
      <feGaussianBlur stdDeviation="2" in="SourceAlpha" result="shadowBlurInner1"/>
      <feOffset in="shadowBlurInner1" result="shadowOffsetInner1"/>
      <feComposite in="shadowOffsetInner1" in2="SourceAlpha" operator="arithmetic" k2="-1" k3="1" result="shadowInnerInner1"/>
      <feColorMatrix values="0 0 0 0 0.501960784 0 0 0 0 0 0 0 0 0 0 0 0 0 0.3 0" in="shadowInnerInner1"/>
    </filter>
  </defs>
  <g fill="none" fill-rule="evenodd">
    <g transform="translate(50 2)">
      <circle stroke="#A17EE6" stroke-width="4" opacity=".3" cx="78" cy="78" r="60"/>
      <circle stroke="#A17EE6" stroke-width="4" opacity=".1" cx="78" cy="78" r="78"/>
      <mask id="c" fill="#fff">
        <use xlink:href="#a"/>
      </mask>
      <use fill="#FFF" xlink:href="#a"/>
      <use stroke="#A07EE5" mask="url(#b)" stroke-width="8" xlink:href="#a"/>
      <g mask="url(#c)">
        <g transform="translate(68.784 49.632)">
          <ellipse stroke="#4C2A1E" stroke-width=".63" fill="#7F5139" cx="24.608" cy="21.17" rx="17.667" ry="19.274"/>
          <use fill="#F0C295" xlink:href="#d"/>
          <use fill="#000" filter="url(#e)" xlink:href="#d"/>
          <use stroke="#643" stroke-width=".63" xlink:href="#d"/>
          <g transform="translate(0 36.653)">
            <g>
              <mask id="h" fill="#fff">
                <use xlink:href="#f"/>
              </mask>
              <use fill="#F0C295" xlink:href="#f"/>
              <use fill="#000" filter="url(#g)" xlink:href="#f"/>
              <use stroke="#643" stroke-width=".63" xlink:href="#f"/>
              <path d="M8.834-17.737c0-8.702 7.06-15.756 15.75-15.756h.047c8.7 0 15.752 7.05 15.752 15.756v5.73L38.43-3.01c-.665 3.06-3.473 6.675-6.28 8.08l-4.16 2.084c-1.868.935-4.892.937-6.764 0l-4.16-2.083c-2.804-1.404-5.616-5.024-6.28-8.08l-1.952-8.997v-5.73z" fill="#C40" opacity=".12" style="mix-blend-mode:multiply" mask="url(#h)"/>
            </g>
            <use fill="#99E68A" xlink:href="#i"/>
            <use fill="#000" filter="url(#j)" xlink:href="#i"/>
            <use stroke="#337F33" stroke-width=".63" xlink:href="#i"/>
            <path fill="#719949" opacity=".3" d="M16.405 11.375H32.81l15.775 3.16-4.1 10.11"/>
            <rect fill="#719949" opacity=".2" x="16.405" y="10.111" width="16.405" height="3.792" rx="1.26"/>
            <g>
              <use fill="#99E68A" xlink:href="#k"/>
              <use fill="#000" filter="url(#l)" xlink:href="#k"/>
              <use stroke="#337F33" stroke-width=".63" xlink:href="#k"/>
            </g>
            <rect fill="#719949" opacity=".3" x="27.132" y="8.847" width="5.679" height="3.792" rx="1.26"/>
          </g>
          <path d="M8.834 17.02c0-8.702 7.06-15.756 15.75-15.756h.047c8.7 0 15.752 7.05 15.752 15.756v5.73l-1.953 8.998c-.665 3.058-3.473 6.674-6.28 8.08l-4.16 2.083c-1.868.936-4.892.938-6.764 0l-4.16-2.082c-2.804-1.405-5.616-5.025-6.28-8.08L8.835 22.75v-5.73z" stroke="#643" stroke-width=".63" fill="#F0C295"/>
          <use fill="#F0C295" xlink:href="#m"/>
          <use fill="#000" filter="url(#n)" xlink:href="#m"/>
          <use stroke="#643" stroke-width=".63" xlink:href="#m"/>
          <path d="M23.346 29.7c.23.312.6.514 1.015.514.417 0 .786-.202 1.016-.513" stroke="#71432C" stroke-width=".63" opacity=".2"/>
          <path d="M29.586 33.528l2.563-1.284c2.807-1.406 5.615-5.02 6.28-8.08l1.88-8.664c.048.5.072 1.007.072 1.52v5.73l-1.953 8.998c-.665 3.058-3.473 6.674-6.28 8.08l-4.16 2.083c-1.868.936-4.892.938-6.764 0l-4.16-2.082c-2.804-1.405-5.616-5.025-6.28-8.08L8.835 22.75v-5.73c0-.512.024-1.02.072-1.52l1.88 8.665c.664 3.054 3.476 6.675 6.28 8.08l2.564 1.283c.265-1.108 1.255-1.93 2.452-1.93h5.052c1.19 0 2.187.815 2.452 1.93z" fill="#643" opacity=".2"/>
          <path d="M24.608 1.896c-8.844 0-17.352 5.51-18.614 14.807-.28 2.06.63 5.1 1.578 8.575 2.84 1.377 6.31-1.896 6.94-8.575 3.786 5.415 11.673 2.66 11.673 1.09 1.893 4.01 13.566 8.63 16.09 6.22.63-1.58.63-4.364.63-4.364 0-3.293-13.274-17.754-18.297-17.754z" fill="#C40" opacity=".12" style="mix-blend-mode:multiply"/>
          <use fill="#7F5139" xlink:href="#o"/>
          <use fill="#000" filter="url(#p)" xlink:href="#o"/>
          <use stroke="#4C2A1E" stroke-width=".63" xlink:href="#o"/>
          <g transform="translate(15.774 22.75)">
            <ellipse fill="#573A2B" opacity=".89" cx="1.893" cy="1.896" rx="1.893" ry="1.896"/>
            <ellipse fill="#573A2B" opacity=".89" cx="15.774" cy="1.896" rx="1.893" ry="1.896"/>
            <ellipse fill="#FFF" cx="1.262" cy="1.264" rx=".631" ry=".632"/>
            <ellipse fill="#FFF" cx="15.143" cy="1.264" rx=".631" ry=".632"/>
          </g>
          <path d="M21.228 34.58c.96.662 2.125 1.05 3.38 1.05s2.42-.388 3.38-1.05" stroke="#99734D" stroke-width=".63" stroke-linecap="round" stroke-linejoin="round"/>
          <rect stroke="#949494" stroke-width=".63" fill="#FFF" transform="rotate(-11 8.203 27.49)" x="7.572" y="25.278" width="1.262" height="4.424" rx=".63"/>
          <ellipse stroke="#949494" stroke-width=".63" fill="#FFF" cx="8.203" cy="25.91" rx="1.262" ry="1.264"/>
          <rect stroke="#949494" stroke-width=".63" fill="#FFF" transform="rotate(-169 43.66 0)" x="40.382" y="25.278" width="1.262" height="4.424" rx=".63"/>
          <ellipse stroke="#949494" stroke-width=".63" fill="#FFF" cx="41.013" cy="25.91" rx="1.262" ry="1.264"/>
          <path d="M8.518 29.7c1.262 6.953 15.46 20.856 15.46 27.175v13.798M40.382 29.7c-1.262 6.953-15.46 20.856-15.46 27.175v13.798" stroke="#979797" stroke-width=".63"/>
        </g>
        <g transform="translate(41 50.806)">
          <use fill="#1D2326" xlink:href="#q"/>
          <use fill="#000" filter="url(#r)" xlink:href="#q"/>
          <use stroke="#000" stroke-width=".63" xlink:href="#q"/>
          <use fill="#FFF0E0" xlink:href="#s"/>
          <use fill="#000" filter="url(#t)" xlink:href="#s"/>
          <use stroke="#000" stroke-width=".63" xlink:href="#s"/>
          <g transform="translate(0 34.125)">
            <mask id="w" fill="#fff">
              <use xlink:href="#u"/>
            </mask>
            <use fill="#FFF0E0" xlink:href="#u"/>
            <use fill="#000" filter="url(#v)" xlink:href="#u"/>
            <use stroke="#1E2326" stroke-width=".63" xlink:href="#u"/>
            <path d="M28.27 14.072c-1.326-.443-1.607-.007-.618.983l13.36 13.383V18.325L28.27 14.072zM5.61-16.393c-.31-8.397 6.245-15.204 14.658-15.204h1.11c8.404 0 14.966 6.817 14.656 15.204l-.07 1.858L34.32-3.65c-.834 5.506-5.736 11.53-10.97 13.46l-1.346.497c-.653.24-1.712.24-2.364 0l-1.346-.497C13.07 7.882 8.16 1.858 7.324-3.65L5.68-14.535l-.07-1.858z" fill="#C40" opacity=".12" style="mix-blend-mode:multiply" mask="url(#w)"/>
          </g>
          <path d="M8.834 48.66l1.262-.316S8.518 62.247 20.822 62.247 31.55 48.66 31.55 48.66l1.26.316 3.155 24.218H5.68L8.833 48.66z" stroke="#B8374C" stroke-width=".63" stroke-linecap="round" stroke-linejoin="round" fill="#FE4D6B"/>
          <path d="M5.61 18.364C5.3 9.967 11.855 3.16 20.268 3.16h1.11c8.404 0 14.966 6.817 14.656 15.204l-.07 1.858-1.645 10.885c-.834 5.506-5.736 11.53-10.97 13.46l-1.346.497c-.653.24-1.712.24-2.364 0l-1.346-.497C13.07 42.64 8.16 36.615 7.324 31.107L5.68 20.222l-.07-1.858z" fill="#C40" opacity=".12" style="mix-blend-mode:multiply"/>
          <use fill="#FFF0E0" xlink:href="#x"/>
          <use fill="#000" filter="url(#y)" xlink:href="#x"/>
          <use stroke="#1E2326" stroke-width=".63" xlink:href="#x"/>
          <path d="M19.56 30.333c.286.31.63.632 1.262.632.63 0 .976-.32 1.262-.632" stroke="#71432C" stroke-width=".63" opacity=".2"/>
          <path d="M35.99 13.977C35.35 6.465 29.152.632 21.377.632h-1.11c-.09 0-.18 0-.27.002 4.085.075 7.67 1.95 10.025 4.86-2.59-1.867-5.767-2.966-9.2-2.966-8.714 0-15.774 7.075-15.774 15.802v5.127c1.527.312 3.11.475 4.732.475 6.342 0 12.085-2.5 16.25-6.548 1.1 2.993 3.258 5.362 5.948 6.51l-.633 4.67c-.748 5.515-5.524 11.7-10.673 13.82l-.257.106c-.14.058-.298.103-.466.136.642.145 1.497.116 2.054-.09l1.346-.497c5.234-1.932 10.136-7.955 10.97-13.46l.598-3.963c.242.02.486.03.732.03.32 0 .635-.017.946-.05V18.33c0-1.51-.21-2.97-.606-4.353z" fill="#C40" opacity=".12" style="mix-blend-mode:multiply"/>
          <g>
            <use fill="#1D2326" xlink:href="#z"/>
            <use fill="#000" filter="url(#A)" xlink:href="#z"/>
            <use stroke="#000" stroke-width=".63" xlink:href="#z"/>
          </g>
          <ellipse fill="#FE4D6B" opacity=".1" cx="13.25" cy="31.597" rx="1.893" ry="1.896"/>
          <ellipse fill="#FE4D6B" opacity=".1" cx="28.394" cy="31.597" rx="1.893" ry="1.896"/>
          <path d="M16.405 34.757c1.256 1.594 2.778 2.528 4.417 2.528 1.64 0 3.16-.934 4.417-2.528h-8.835z" stroke="#D47F8D" stroke-width=".63" stroke-linecap="round" stroke-linejoin="round" fill="#FFF"/>
          <g>
            <g transform="translate(10.096 23.382)">
              <ellipse fill="#1E2326" cx="3.155" cy="1.896" rx="1.893" ry="1.896"/>
              <path fill="#1E2326" d="M1.893.843L0 0l1.893 2.528"/>
              <ellipse fill="#FFF" cx="2.524" cy="1.264" rx=".631" ry=".632"/>
            </g>
            <g transform="translate(26.5 23.382)">
              <ellipse fill="#1E2326" cx="1.893" cy="1.896" rx="1.893" ry="1.896"/>
              <path fill="#1E2326" d="M3.155.843L5.048 0 3.155 2.528"/>
              <ellipse fill="#FFF" cx="1.262" cy="1.264" rx=".631" ry=".632"/>
            </g>
          </g>
        </g>
      </g>
    </g>
    <path d="M257.812 37.76c-3.735 1.002-7.573-1.214-8.573-4.948-1.002-3.735 1.214-7.573 4.948-8.573 3.735-1.002 7.573 1.214 8.573 4.948 1.002 3.735-1.214 7.573-4.948 8.573zm-5.074-3.536c1.222.97 2.833 1.32 4.37.91 1.536-.412 2.756-1.52 3.33-2.972l-1.087-.428c-.437 1.11-1.37 1.958-2.544 2.273-1.176.315-2.407.047-3.342-.696l-.726.914zm.633-2.52c.623-.166.992-.806.825-1.428-.166-.623-.806-.992-1.428-.825-.623.168-.992.807-.825 1.43.166.622.806.99 1.43.825zm5.26-1.41c.622-.165.99-.805.824-1.427-.166-.623-.806-.992-1.428-.825-.623.166-.992.806-.825 1.428.167.623.807.992 1.43.825z" opacity=".4" fill="#A17EE6"/>
    <g opacity=".9" transform="rotate(-8 729.36 -287.23)" fill="#A17EE6">
      <path d="M7.848 12v.537c0 .552-.438 1.125-.958 1.274l-4.11 1.175C1.713 15.29.7 16.422.52 17.502l-.507 3.044c-.09.548.29.99.827.99h18.017c.547 0 .916-.45.826-.99l-.507-3.044c-.18-1.085-1.186-2.21-2.26-2.517l-4.11-1.174c-.528-.15-.958-.717-.958-1.273V12c-.588.342-1.272.537-2 .537s-1.41-.195-2-.536z"/>
      <rect x="6" width="8" height="12" rx="4"/>
      <rect x="5.5" y="5" width="9" height="2" rx="1"/>
    </g>
    <g transform="rotate(-15 139.34 -113.52)">
      <path d="M2.98 6.166l-.22-2.512c-.062-.71.472-1.337 1.192-1.4L24.98.414c.72-.062 1.355.47 1.42 1.19l1.357 15.523c.063.72-.47 1.355-1.184 1.418l-2.134.187" stroke="#BFACE6" stroke-width="1.3"/>
      <rect fill="#A17EE6" y="4.215" width="24.828" height="20.8" rx="1.3"/>
      <ellipse fill="#FFF" cx="7.187" cy="10.065" rx="3.267" ry="3.25"/>
      <path fill="#FFF" d="M8.458 23.715h-7.14l7.25-7.8 6.445 6.933-2.49-3.683 5.272-5.85 5.932 7.02v3.38H8.457"/>
    </g>
    <g opacity=".5">
      <path d="M233.432 125.603l.365.954c.496 1.293-.09 2.874-1.303 3.527l-4.835 2.605c-1.216.654-1.59 2.128-.835 3.29l-.092-.144c.754 1.163 2.255 1.42 3.344.577l4.346-3.357c1.093-.844 2.78-.758 3.783.204l.97.932" fill="#A17EE6"/>
      <path d="M246.276 132.906c.968-.557 1.57-.327 1.396.496-.022.103-.11.325-.273.673-.093.196-.496 1.03-.58 1.204-.228.48-.41.888-.57 1.283-.444 1.087-.678 1.977-.656 2.73.03 1.054.59 1.803 1.664 2.03 1.145.245 1.98-.24 2.406-1.258.294-.704.4-1.617.402-2.903 0-.268-.003-.543-.01-.9-.037-1.692-.036-1.97.046-2.34.152-.69.477-1.402.91-2.088.268-.422.51-.738.657-.905.6-.785.644-1.976.128-2.762l-5.35-8.16-4.15 1.334 2.96-3.128-2.434-3.725-6.347 5.615 7.59 13.262s1.55-.082 2.21-.46z" stroke="#A17EE6" stroke-width="1.25" stroke-linecap="round" stroke-linejoin="round"/>
      <path d="M234.854 122.113l7.56 11.542" fill="#A17EE6"/>
      <path d="M237.43 119.235l-4.045 3.303c-.534.435-.645 1.257-.26 1.82l7.048 10.276c.39.57 1.21.778 1.828.468l4.556-2.283-9.126-13.585z" stroke="#A17EE6" stroke-width="1.25" stroke-linecap="round" stroke-linejoin="round" fill="#A17EE6"/>
    </g>
    <g transform="rotate(-15 330.68 -705.98)">
      <path d="M11.762 18H13.6c1.983 0 3.93-1.57 4.347-3.51l1.202-5.58c.416-1.94 2.37-3.51 4.347-3.51h2.74M11.762 18H13.6c1.983 0 4.027 1.545 4.57 3.46l1.605 5.68c.54 1.91 2.594 3.46 4.576 3.46h1.888M11.762 18h14.476" stroke="#CFC3E6" stroke-width="1.8" stroke-linejoin="round"/>
      <rect fill="#B095E6" x="25.333" y="12.6" width="12.667" height="10.8" rx="5.4"/>
      <rect fill="#BFACE6" x="25.333" y="25.2" width="12.667" height="10.8" rx="5.4"/>
      <rect fill="#A17EE6" x="25.333" width="12.667" height="10.8" rx="5.4"/>
      <rect fill="#A17EE6" y="12.6" width="12.667" height="10.8" rx="5.4"/>
    </g>
    <path d="M6.216 125.53c-.38.017-.766-.023-1.15-.126-1.03-.276-1.847-.95-2.328-1.812.613-.088 1.193-.327 1.688-.687-.668-1.582-.834-3.39-.355-5.178 1.144-4.267 5.53-6.8 9.8-5.656 4.266 1.144 6.8 5.53 5.655 9.8-1.143 4.266-5.53 6.8-9.798 5.655-1.37-.367-2.563-1.07-3.51-1.994zm1.24-3.582l7.026 1.882c.194.052.398-.08.455-.292.057-.214-.054-.43-.248-.48l-7.026-1.883c-.194-.052-.397.08-.454.292-.058.214.053.43.247.48zm.622-2.318l7.025 1.882c.194.052.398-.08.455-.292.057-.214-.054-.43-.248-.48l-7.024-1.883c-.194-.052-.398.08-.455.292-.056.212.054.428.248.48zm.622-2.32l7.025 1.884c.194.052.397-.08.454-.293.056-.212-.054-.427-.248-.48l-7.025-1.88c-.194-.053-.398.077-.455.29-.057.214.054.43.248.48z" opacity=".5" fill="#A17EE6"/>
    <g opacity=".9" stroke-linecap="round">
      <path d="M215.295 14.11l.865.5c.957.552 1.285 1.774.736 2.726L210.89 27.74c-.55.953-1.768 1.28-2.73.726l-11.258-6.5c-.956-.552-1.284-1.775-.735-2.727l6.006-10.404c.55-.953 1.777-1.276 2.73-.726l.865.5" stroke="#BFACE6"/>
      <g stroke-width="2" stroke="#A17EE6">
        <path d="M209.116 8.81l3.166-.482 1.165 2.982M211.782 9.194l-5 8.66"/>
      </g>
    </g>
    <g opacity=".7">
      <path fill="#BFACE6" d="M1.59 70.292l15.455-4.14 2.588 9.658-15.455 4.14z"/>
      <path d="M.366 69.585l17.386-4.66M3.47 81.176l17.388-4.66M12.165 78.847l.776 2.897M9.336 83.746l3.605-2.002 4.124-.07" stroke="#A17EE6" stroke-linecap="round" stroke-linejoin="round"/>
    </g>
  </g>
</svg>
